<?xml version="1.0" encoding="UTF-8"?>
<svg xmlns="http://www.w3.org/2000/svg" xmlns:xlink="http://www.w3.org/1999/xlink" width="898.583pt" height="651.974pt" viewBox="0 0 898.583 651.974" version="1.2">
<g id="surface1">
<path style=" stroke:none;fill-rule:nonzero;fill:rgb(100%,100%,100%);fill-opacity:1;" d="M 412.480469 230.078125 L 412.480469 272.816406 C 412.480469 278.800781 414.898438 282.160156 419.203125 282.160156 C 423.191406 282.160156 425.609375 278.800781 425.609375 273.445312 L 425.609375 230.078125 L 439.574219 230.078125 L 439.574219 276.070312 C 439.574219 288.148438 432.015625 295.394531 419.203125 295.394531 C 405.867188 295.394531 398.519531 288.148438 398.519531 275.019531 L 398.519531 230.078125 Z M 360.199219 275.335938 C 364.714844 280.164062 368.601562 282.269531 373.011719 282.269531 C 376.792969 282.269531 379.730469 279.953125 379.730469 276.804688 C 379.730469 274.285156 378.367188 272.1875 374.796875 269.140625 C 369.546875 264.625 365.875 261.054688 364.191406 258.640625 C 361.253906 254.546875 359.675781 250.136719 359.675781 245.621094 C 359.675781 235.75 367.339844 228.609375 378.050781 228.609375 C 382.355469 228.609375 385.613281 229.554688 390.128906 232.070312 L 390.128906 248.136719 C 386.242188 243.625 383.089844 241.730469 379.621094 241.730469 C 376.585938 241.730469 373.851562 244.042969 373.851562 246.566406 C 373.851562 248.980469 375.425781 251.183594 379.414062 254.4375 L 380.464844 255.277344 C 384.355469 258.429688 384.875 258.847656 386.347656 260.320312 C 391.074219 265.257812 393.167969 270.082031 393.167969 276.070312 C 393.167969 287.410156 385.191406 295.394531 373.851562 295.394531 C 368.8125 295.394531 365.132812 294.027344 360.199219 290.457031 Z M 357.378906 230.078125 L 357.378906 242.574219 L 344.882812 242.574219 L 344.882812 294.132812 L 331.125 294.132812 L 331.125 242.679688 L 318.421875 242.679688 L 318.421875 230.078125 Z M 298.371094 230.078125 L 312.230469 230.078125 L 312.230469 294.132812 L 298.371094 294.132812 Z M 312.230469 230.078125 Z M 289.03125 230.078125 L 289.03125 275.019531 C 289.03125 289.300781 283.785156 295.394531 271.394531 295.394531 C 267.085938 295.394531 265.195312 294.867188 259.738281 291.925781 L 259.738281 277.75 C 260.367188 278.066406 260.472656 278.171875 261.316406 278.800781 C 264.882812 281.425781 266.878906 282.269531 269.609375 282.269531 C 273.488281 282.269531 275.171875 279.746094 275.171875 274.074219 L 275.171875 230.078125 Z M 240.109375 259.214844 L 258.90625 259.214844 L 258.90625 269.503906 L 240.109375 269.503906 Z M 258.90625 259.214844 Z M 208.199219 230.078125 L 208.199219 272.816406 C 208.199219 278.800781 210.613281 282.160156 214.914062 282.160156 C 218.910156 282.160156 221.324219 278.800781 221.324219 273.445312 L 221.324219 230.078125 L 235.285156 230.078125 L 235.285156 276.070312 C 235.285156 288.148438 227.730469 295.394531 214.914062 295.394531 C 201.582031 295.394531 194.230469 288.148438 194.230469 275.019531 L 194.230469 230.078125 Z M 170.925781 230.078125 L 184.789062 230.078125 L 184.789062 294.132812 L 170.925781 294.132812 Z M 184.789062 230.078125 Z M 161.59375 230.078125 L 161.59375 275.019531 C 161.59375 289.300781 156.339844 295.394531 143.949219 295.394531 C 139.640625 295.394531 137.753906 294.867188 132.292969 291.925781 L 132.292969 277.75 C 132.925781 278.066406 133.027344 278.171875 133.871094 278.800781 C 137.4375 281.425781 139.433594 282.269531 142.164062 282.269531 C 146.050781 282.269531 147.730469 279.746094 147.730469 274.074219 L 147.730469 230.078125 L 161.59375 230.078125 "/>
<path style=" stroke:none;fill-rule:nonzero;fill:rgb(100%,100%,100%);fill-opacity:1;" d="M 413.21875 305.871094 L 421.414062 326.136719 L 429.175781 305.871094 L 442.9375 305.871094 L 428.65625 341.574219 L 428.65625 369.925781 L 414.902344 369.925781 L 414.902344 341.679688 L 398.308594 305.871094 Z M 358.527344 305.871094 L 365.5625 348.082031 L 365.773438 348.082031 L 373.539062 305.871094 L 390.660156 305.871094 L 396.851562 369.925781 L 383.730469 369.925781 L 380.574219 317.527344 L 380.367188 317.527344 L 370.601562 369.925781 L 360.734375 369.925781 L 351.496094 317.210938 L 351.28125 317.210938 L 347.714844 369.925781 L 334.484375 369.925781 L 341.097656 305.871094 Z M 329.871094 305.871094 L 329.871094 318.265625 L 313.703125 318.265625 L 313.703125 331.285156 L 327.558594 331.285156 L 327.558594 343.148438 L 313.703125 343.148438 L 313.703125 357.328125 L 331.863281 357.328125 L 331.863281 369.925781 L 299.945312 369.925781 L 299.945312 305.871094 Z M 264.25 358.269531 L 265.933594 358.269531 C 269.398438 358.269531 273.914062 356.167969 275.804688 353.542969 C 278.222656 350.394531 279.058594 346.40625 279.058594 338.738281 C 279.058594 332.125 278.535156 328.136719 277.277344 325.089844 C 275.59375 320.675781 270.871094 317.527344 265.828125 317.425781 L 264.25 317.425781 Z M 265.621094 305.871094 C 276.433594 305.871094 284.625 310.386719 289.457031 318.890625 C 292.289062 323.933594 293.550781 329.707031 293.550781 337.6875 C 293.550781 358.375 283.367188 369.925781 265.09375 369.925781 L 250.292969 369.925781 L 250.292969 305.871094 Z M 215.757812 349.558594 L 228.144531 349.558594 L 222.472656 321.621094 L 222.265625 321.621094 Z M 229.714844 305.871094 L 245.785156 369.925781 L 232.238281 369.925781 L 230.140625 359.949219 L 213.234375 359.949219 L 210.921875 369.925781 L 197.375 369.925781 L 215.648438 305.871094 Z M 196.019531 368.878906 C 192.347656 370.449219 188.886719 371.1875 184.261719 371.1875 C 174.289062 371.1875 166.410156 366.5625 161.375 357.640625 C 158.433594 352.492188 157.175781 346.40625 157.175781 338.105469 C 157.175781 326.035156 160.109375 317.320312 166.410156 311.332031 C 171.246094 306.816406 176.601562 304.507812 182.792969 304.507812 C 187.097656 304.507812 190.988281 305.453125 195.917969 307.65625 L 195.917969 321.097656 L 194.449219 320.363281 C 190.148438 318.15625 188.363281 317.632812 185.421875 317.632812 C 180.277344 317.632812 175.230469 321.203125 173.449219 326.242188 C 172.296875 329.601562 171.765625 333.070312 171.765625 337.6875 C 171.765625 344.515625 172.605469 348.816406 174.707031 352.074219 C 177.121094 355.960938 181.007812 358.058594 185.628906 358.058594 C 188.570312 358.058594 192.875 356.484375 196.019531 354.277344 Z M 127.359375 349.558594 L 139.753906 349.558594 L 134.082031 321.621094 L 133.871094 321.621094 Z M 141.328125 305.871094 L 157.390625 369.925781 L 143.84375 369.925781 L 141.746094 359.949219 L 124.839844 359.949219 L 122.53125 369.925781 L 108.988281 369.925781 L 127.257812 305.871094 L 141.328125 305.871094 "/>
<path style=" stroke:none;fill-rule:nonzero;fill:rgb(100%,100%,100%);fill-opacity:1;" d="M 241.125 416.429688 C 245.480469 416.300781 246.851562 414.8125 246.851562 410.019531 C 246.851562 404.851562 245.359375 403.046875 241.125 402.921875 Z M 241.125 399.0625 C 245.234375 398.941406 246.789062 397.132812 246.789062 392.46875 C 246.789062 387.179688 245.480469 385.621094 241.125 385.621094 Z M 242.0625 381.636719 C 248.714844 381.636719 251.765625 384.8125 251.765625 391.722656 C 251.765625 396.699219 250.027344 399.621094 246.230469 400.992188 L 246.230469 401.117188 C 250.398438 401.988281 252.265625 405.035156 252.265625 410.703125 C 252.265625 416.867188 249.214844 420.347656 243.738281 420.347656 L 235.960938 420.347656 L 235.960938 381.636719 L 242.0625 381.636719 "/>
<path style=" stroke:none;fill-rule:nonzero;fill:rgb(100%,100%,100%);fill-opacity:1;" d="M 263.789062 398.628906 C 268.023438 398.503906 269.515625 396.820312 269.515625 392.15625 C 269.515625 387.488281 268.023438 385.683594 264.101562 385.683594 L 263.789062 385.683594 Z M 265.78125 381.636719 C 271.695312 381.636719 274.621094 384.9375 274.621094 391.53125 C 274.621094 397.386719 273.125 400.121094 269.082031 401.738281 L 275.738281 420.347656 L 270.328125 420.347656 L 264.226562 402.175781 L 263.789062 402.175781 L 263.789062 420.347656 L 258.5625 420.347656 L 258.5625 381.636719 L 265.78125 381.636719 "/>
<path style=" stroke:none;fill-rule:nonzero;fill:rgb(100%,100%,100%);fill-opacity:1;" d="M 287.320312 408.773438 L 294.042969 408.773438 L 290.683594 390.414062 L 290.558594 390.414062 Z M 292.800781 381.636719 L 301.203125 420.347656 L 296.160156 420.347656 L 294.730469 412.695312 L 286.578125 412.695312 L 285.144531 420.347656 L 280.164062 420.347656 L 288.503906 381.636719 L 292.800781 381.636719 "/>
<path style=" stroke:none;fill-rule:nonzero;fill:rgb(100%,100%,100%);fill-opacity:1;" d="M 319.507812 381.636719 L 319.507812 386.054688 L 313.59375 386.054688 L 313.59375 420.347656 L 308.367188 420.347656 L 308.367188 386.054688 L 302.457031 386.054688 L 302.457031 381.636719 L 319.507812 381.636719 "/>
<path style=" stroke:none;fill-rule:nonzero;fill:rgb(100%,100%,100%);fill-opacity:1;" d="M 325.617188 420.347656 L 330.847656 420.347656 L 330.847656 381.636719 L 325.617188 381.636719 Z M 325.617188 420.347656 "/>
<path style=" stroke:none;fill-rule:nonzero;fill:rgb(100%,100%,100%);fill-opacity:1;" d="M 338.132812 414.746094 C 338.320312 414.8125 338.320312 414.871094 338.570312 414.996094 C 340.5 416.117188 341.804688 416.554688 343.117188 416.554688 C 346.164062 416.554688 348.339844 414.3125 348.339844 411.136719 C 348.339844 409.082031 347.78125 407.964844 345.039062 404.539062 C 344.917969 404.351562 344.671875 404.105469 344.484375 403.792969 L 343.796875 402.984375 C 342.304688 401.179688 341.933594 400.679688 340.25 398.566406 C 338.070312 395.390625 337.386719 393.398438 337.386719 390.539062 C 337.386719 384.871094 341 381.015625 346.222656 381.015625 C 348.089844 381.015625 349.835938 381.449219 351.765625 382.386719 L 351.765625 386.613281 C 350.023438 385.683594 348.46875 385.25 347.160156 385.25 C 344.421875 385.25 342.238281 387.488281 342.238281 390.226562 C 342.238281 392.03125 343.238281 394.085938 345.667969 397.070312 L 346.289062 397.816406 C 351.953125 404.851562 353.199219 407.152344 353.199219 411.074219 C 353.199219 416.863281 349.398438 420.785156 343.796875 420.785156 C 341.992188 420.785156 340.8125 420.472656 338.132812 419.414062 L 338.132812 414.746094 "/>
<path style=" stroke:none;fill-rule:nonzero;fill:rgb(100%,100%,100%);fill-opacity:1;" d="M 364.34375 381.636719 L 364.34375 415.992188 L 373.117188 415.992188 L 373.117188 420.347656 L 359.117188 420.347656 L 359.117188 381.636719 L 364.34375 381.636719 "/>
<path style=" stroke:none;fill-rule:nonzero;fill:rgb(100%,100%,100%);fill-opacity:1;" d="M 385.261719 408.773438 L 391.984375 408.773438 L 388.625 390.414062 L 388.503906 390.414062 Z M 390.738281 381.636719 L 399.140625 420.347656 L 394.101562 420.347656 L 392.671875 412.695312 L 384.519531 412.695312 L 383.085938 420.347656 L 378.109375 420.347656 L 386.445312 381.636719 L 390.738281 381.636719 "/>
<path style=" stroke:none;fill-rule:nonzero;fill:rgb(100%,100%,100%);fill-opacity:1;" d="M 404.195312 381.636719 L 408.984375 410.953125 L 409.109375 410.953125 L 414.273438 381.636719 L 419.25 381.636719 L 411.097656 420.347656 L 406.992188 420.347656 L 399.148438 381.636719 L 404.195312 381.636719 "/>
<path style=" stroke:none;fill-rule:nonzero;fill:rgb(100%,100%,100%);fill-opacity:1;" d="M 427.167969 408.773438 L 433.890625 408.773438 L 430.527344 390.414062 L 430.402344 390.414062 Z M 432.644531 381.636719 L 441.046875 420.347656 L 436.007812 420.347656 L 434.574219 412.695312 L 426.421875 412.695312 L 424.988281 420.347656 L 420.011719 420.347656 L 428.347656 381.636719 L 432.644531 381.636719 "/>
<path style=" stroke:none;fill-rule:nonzero;fill:rgb(100%,100%,100%);fill-opacity:1;" d="M 496.570312 420.695312 L 500.378906 420.695312 L 500.378906 228.515625 L 496.570312 228.515625 Z M 496.570312 420.695312 "/>
<path style=" stroke:none;fill-rule:nonzero;fill:rgb(100%,100%,100%);fill-opacity:1;" d="M 558.050781 419.230469 C 553.359375 419.230469 551.460938 415.917969 553.828125 411.871094 L 643.9375 257.808594 C 646.304688 253.761719 649.394531 254.109375 650.8125 258.582031 L 665.441406 304.816406 C 666.855469 309.289062 665.441406 315.792969 662.296875 319.273438 L 577.722656 412.902344 C 574.578125 416.386719 568.171875 419.230469 563.480469 419.230469 L 558.050781 419.230469 "/>
<path style=" stroke:none;fill-rule:nonzero;fill:rgb(100%,100%,100%);fill-opacity:1;" d="M 586.332031 412.929688 C 583.167969 416.394531 584.421875 419.230469 589.109375 419.230469 L 765.707031 419.230469 C 770.398438 419.230469 772.351562 415.886719 770.050781 411.800781 L 768.242188 408.589844 C 765.9375 404.503906 760.300781 400.363281 755.714844 399.386719 L 632.566406 373.171875 C 627.980469 372.195312 621.640625 374.230469 618.480469 377.695312 L 586.332031 412.929688 "/>
<path style=" stroke:none;fill-rule:nonzero;fill:rgb(100%,100%,100%);fill-opacity:1;" d="M 656.917969 235.636719 C 654.546875 239.683594 653.773438 246.652344 655.195312 251.125 L 693.4375 371.339844 C 694.863281 375.8125 699.765625 380.316406 704.339844 381.347656 L 751.632812 392.050781 C 756.207031 393.085938 758.0625 390.589844 755.757812 386.507812 L 668.070312 231.148438 C 665.769531 227.0625 661.945312 227.035156 659.578125 231.082031 L 656.917969 235.636719 "/>
</g>
</svg>
